<svg xmlns="http://www.w3.org/2000/svg" width="9" height="16" viewBox="0 0 9 16" fill="none">
<path fill-rule="evenodd" clip-rule="evenodd" d="M0 13.226H9V15.258H0V13.226ZM4.447 3.936C5.22753 3.92137 6.00092 4.08699 6.707 4.42C7.366 4.742 7.695 5.351 7.695 6.247V9.655C7.695 9.891 7.7 10.177 7.71 10.514C7.704 10.694 7.746 10.872 7.83 11.031C7.908 11.131 8.011 11.209 8.129 11.256V11.543H5.925C5.86754 11.4069 5.82463 11.2651 5.797 11.12C5.7706 10.971 5.75158 10.8209 5.74 10.67C5.45628 10.9633 5.13076 11.213 4.774 11.411C4.32 11.657 3.811 11.782 3.295 11.774C2.66512 11.7982 2.04777 11.5936 1.557 11.198C1.32552 10.9962 1.14327 10.7442 1.02419 10.4611C0.905119 10.1781 0.852375 9.87157 0.87 9.565C0.844618 9.16354 0.935073 8.76324 1.13061 8.4117C1.32614 8.06016 1.61853 7.77218 1.973 7.582C2.53139 7.31511 3.13406 7.15309 3.751 7.104L4.441 7.023C4.714 7 4.984 6.943 5.244 6.853C5.36633 6.82001 5.47471 6.74833 5.55293 6.64865C5.63116 6.54898 5.67503 6.42667 5.678 6.3C5.69032 6.17415 5.66554 6.04744 5.60673 5.9355C5.54791 5.82355 5.45763 5.73126 5.347 5.67C5.0416 5.53737 4.70946 5.47779 4.377 5.496C4.19303 5.47676 4.00708 5.49715 3.83165 5.55579C3.65623 5.61444 3.4954 5.70999 3.36 5.836C3.20533 6.03343 3.10717 6.26915 3.076 6.518H1.12C1.137 5.938 1.336 5.378 1.689 4.915C2.224 4.262 3.143 3.936 4.447 3.936ZM5.669 7.93C5.54633 8.00494 5.41673 8.0679 5.282 8.118C5.10694 8.17672 4.92733 8.22087 4.745 8.25L4.29 8.332C3.9722 8.37165 3.66269 8.46143 3.373 8.598C3.22422 8.67647 3.10094 8.7958 3.01767 8.94196C2.93441 9.08811 2.89463 9.255 2.903 9.423C2.89102 9.5571 2.91107 9.69212 2.96149 9.81695C3.01191 9.94178 3.09126 10.0528 3.193 10.141C3.395 10.292 3.642 10.37 3.893 10.363C4.323 10.365 4.743 10.236 5.098 9.995C5.466 9.749 5.656 9.302 5.671 8.652L5.669 7.93ZM9 0.742004V2.774H0V0.742004H9Z" fill="white"></path>
</svg>